<?xml version="1.0" standalone="no"?>
<!DOCTYPE svg PUBLIC "-//W3C//DTD SVG 20010904//EN"
 "http://www.w3.org/TR/2001/REC-SVG-20010904/DTD/svg10.dtd">
<svg version="1.0" xmlns="http://www.w3.org/2000/svg"
 width="512.000000pt" height="512.000000pt" viewBox="0 0 512.000000 512.000000"
 preserveAspectRatio="xMidYMid meet">
<metadata>
Created by potrace 1.14, written by Peter Selinger 2001-2017
</metadata>
<g transform="translate(0.000000,512.000000) scale(0.100000,-0.100000)"
fill="#000000" stroke="none">
<path d="M1209 5116 c-2 -2 -50 -7 -106 -10 -387 -24 -651 -156 -867 -436
-142 -185 -198 -348 -223 -650 -10 -123 -10 -2772 0 -2910 15 -216 43 -339
105 -470 152 -317 476 -564 797 -606 28 -3 59 -8 70 -10 78 -15 392 -19 1580
-19 1484 0 1548 2 1741 50 162 41 361 155 462 265 13 14 43 45 66 70 125 133
229 348 252 525 3 28 8 59 10 70 15 78 19 391 19 1580 0 1178 -3 1461 -19
1575 -8 56 -16 102 -27 147 -6 27 -12 55 -14 63 -9 43 -66 164 -111 235 -62
98 -167 217 -246 277 -16 13 -36 29 -43 36 -20 18 -158 99 -203 118 -83 36
-214 69 -319 79 -32 4 -74 9 -93 12 -37 7 -2824 15 -2831 9z"/>
</g>
</svg>
